<svg width="14" height="14" fill="none" xmlns="http://www.w3.org/2000/svg"><path fill-rule="evenodd" clip-rule="evenodd" d="M7 2.333c-.643 0-1.167.524-1.167 1.167v2.917a1.168 1.168 0 002.334 0V3.5c0-.643-.524-1.167-1.167-1.167zm2.333 4.084A2.336 2.336 0 017 8.75a2.336 2.336 0 01-2.333-2.333V3.5A2.336 2.336 0 017 1.167 2.336 2.336 0 019.333 3.5v2.917zm1.167-.584c.323 0 .583.262.583.584a4.086 4.086 0 01-3.5 4.036v1.214h1.228c.288 0 .522.234.522.522v.122a.523.523 0 01-.522.522H5.19a.523.523 0 01-.522-.522v-.122c0-.288.234-.522.522-.522h1.228v-1.214a4.086 4.086 0 01-3.5-4.036.583.583 0 111.166 0A2.92 2.92 0 007 9.333a2.92 2.92 0 002.917-2.916c0-.322.26-.584.583-.584z" fill="#231F20"/><mask id="a" maskUnits="userSpaceOnUse" x="2" y="1" width="10" height="12"><path fill-rule="evenodd" clip-rule="evenodd" d="M7 2.333c-.643 0-1.167.524-1.167 1.167v2.917a1.168 1.168 0 002.334 0V3.5c0-.643-.524-1.167-1.167-1.167zm2.333 4.084A2.336 2.336 0 017 8.75a2.336 2.336 0 01-2.333-2.333V3.5A2.336 2.336 0 017 1.167 2.336 2.336 0 019.333 3.5v2.917zm1.167-.584c.323 0 .583.262.583.584a4.086 4.086 0 01-3.5 4.036v1.214h1.228c.288 0 .522.234.522.522v.122a.523.523 0 01-.522.522H5.19a.523.523 0 01-.522-.522v-.122c0-.288.234-.522.522-.522h1.228v-1.214a4.086 4.086 0 01-3.5-4.036.583.583 0 111.166 0A2.92 2.92 0 007 9.333a2.92 2.92 0 002.917-2.916c0-.322.26-.584.583-.584z" fill="#fff"/></mask><g mask="url(#a)"><path fill="#707C97" d="M0 0h14v14H0z"/></g></svg>