<svg width="20" height="20" fill="none" xmlns="http://www.w3.org/2000/svg"><path fill-rule="evenodd" clip-rule="evenodd" d="M15.833 15.213a.62.62 0 01-.62.62h-1.046v-1.667h1.666v1.047zm-11.666 0v-1.046h1.666v1.666H4.787a.62.62 0 01-.62-.62zm.62-11.046h1.046v1.666H4.167V4.787c0-.342.278-.62.62-.62zm11.046.62v1.046h-1.666V4.167h1.046a.62.62 0 01.62.62zM14.167 12.5h1.666v-1.667h-1.666V12.5zm0-3.333h1.666V7.5h-1.666v1.667zM7.5 15.833h5V4.167h-5v11.666zM4.167 12.5h1.666v-1.667H4.167V12.5zm0-3.333h1.666V7.5H4.167v1.667zM15.213 2.5H4.787A2.29 2.29 0 002.5 4.787v10.426A2.29 2.29 0 004.787 17.5h10.426a2.29 2.29 0 002.287-2.287V4.787A2.29 2.29 0 0015.213 2.5z" fill="#231F20"/><mask id="a" maskUnits="userSpaceOnUse" x="2" y="2" width="16" height="16"><path fill-rule="evenodd" clip-rule="evenodd" d="M15.833 15.213a.62.62 0 01-.62.62h-1.046v-1.667h1.666v1.047zm-11.666 0v-1.046h1.666v1.666H4.787a.62.62 0 01-.62-.62zm.62-11.046h1.046v1.666H4.167V4.787c0-.342.278-.62.62-.62zm11.046.62v1.046h-1.666V4.167h1.046a.62.62 0 01.62.62zM14.167 12.5h1.666v-1.667h-1.666V12.5zm0-3.333h1.666V7.5h-1.666v1.667zM7.5 15.833h5V4.167h-5v11.666zM4.167 12.5h1.666v-1.667H4.167V12.5zm0-3.333h1.666V7.5H4.167v1.667zM15.213 2.5H4.787A2.29 2.29 0 002.5 4.787v10.426A2.29 2.29 0 004.787 17.5h10.426a2.29 2.29 0 002.287-2.287V4.787A2.29 2.29 0 0015.213 2.5z" fill="#fff"/></mask><g mask="url(#a)"><path fill="#00C305" d="M0 0h20v20H0z"/></g></svg>